<svg width="187" height="81" viewBox="0 0 187 81" fill="none" xmlns="http://www.w3.org/2000/svg">
<circle cx="26.8347" cy="26.9953" r="25.3347" stroke="#FDD451" stroke-width="3"/>
<path d="M12.7152 27.2989L13.2211 22.336H18.3207V23.505H14.2943L13.9935 26.2188C14.4811 25.9317 15.0349 25.7882 15.6546 25.7882C16.5615 25.7882 17.2816 26.089 17.8148 26.6905C18.348 27.2875 18.6146 28.0964 18.6146 29.1173C18.6146 30.1427 18.3366 30.9516 17.7806 31.544C17.2292 32.1319 16.4567 32.4259 15.4632 32.4259C14.5837 32.4259 13.8659 32.1821 13.3099 31.6944C12.7539 31.2068 12.4372 30.5323 12.3597 29.671H13.556C13.6335 30.2407 13.8363 30.6713 14.1644 30.963C14.4925 31.2501 14.9255 31.3936 15.4632 31.3936C16.0511 31.3936 16.5114 31.1931 16.8441 30.7921C17.1813 30.391 17.35 29.8373 17.35 29.131C17.35 28.4656 17.1677 27.9324 16.8031 27.5313C16.4431 27.1257 15.9623 26.9229 15.3607 26.9229C14.8093 26.9229 14.3763 27.0437 14.0619 27.2852L13.7269 27.5587L12.7152 27.2989ZM25.4117 32.2892H24.1402V23.8604L21.5904 24.797V23.6485L25.2135 22.2882H25.4117V32.2892ZM30.534 31.6261C30.534 31.4073 30.5978 31.225 30.7254 31.0792C30.8576 30.9334 31.0536 30.8604 31.3133 30.8604C31.5731 30.8604 31.769 30.9334 31.9012 31.0792C32.0379 31.225 32.1063 31.4073 32.1063 31.6261C32.1063 31.8357 32.0379 32.0112 31.9012 32.1524C31.769 32.2937 31.5731 32.3643 31.3133 32.3643C31.0536 32.3643 30.8576 32.2937 30.7254 32.1524C30.5978 32.0112 30.534 31.8357 30.534 31.6261ZM39.4845 32.2892H38.213V23.8604L35.6632 24.797V23.6485L39.2862 22.2882H39.4845V32.2892Z" fill="#242424"/>
<path d="M2.23867 76.5005V66.5474H5.725C6.93268 66.5474 7.8487 66.7798 8.47305 67.2446C9.0974 67.7049 9.40957 68.3817 9.40957 69.2749C9.40957 69.7625 9.28425 70.1932 9.03359 70.5669C8.78294 70.936 8.43431 71.2072 7.9877 71.3804C8.49811 71.508 8.89915 71.7655 9.19082 72.1528C9.48704 72.5402 9.63516 73.0142 9.63516 73.5747C9.63516 74.5317 9.32982 75.2563 8.71914 75.7485C8.10846 76.2407 7.23802 76.4914 6.10781 76.5005H2.23867ZM4.28945 72.1665V74.853H6.04629C6.52936 74.853 6.90534 74.7391 7.17422 74.5112C7.44766 74.2788 7.58438 73.9598 7.58438 73.5542C7.58438 72.6427 7.1127 72.1802 6.16934 72.1665H4.28945ZM4.28945 70.7173H5.80703C6.84154 70.6991 7.35879 70.2866 7.35879 69.48C7.35879 69.0288 7.22663 68.7052 6.96231 68.5093C6.70254 68.3088 6.2901 68.2085 5.725 68.2085H4.28945V70.7173ZM15.7145 76.6372C14.6299 76.6372 13.7457 76.3045 13.0621 75.6392C12.3831 74.9738 12.0436 74.0874 12.0436 72.98V72.7886C12.0436 72.0457 12.1871 71.3826 12.4743 70.7993C12.7614 70.2114 13.167 69.7603 13.6911 69.4458C14.2197 69.1268 14.8213 68.9673 15.4957 68.9673C16.5075 68.9673 17.3027 69.2863 17.8815 69.9243C18.4648 70.5623 18.7565 71.467 18.7565 72.6382V73.4448H14.0465C14.1103 73.9279 14.3017 74.3153 14.6207 74.6069C14.9443 74.8986 15.3522 75.0444 15.8444 75.0444C16.6054 75.0444 17.2002 74.7687 17.6286 74.2173L18.5993 75.3042C18.303 75.7235 17.902 76.0516 17.3961 76.2886C16.8903 76.521 16.3297 76.6372 15.7145 76.6372ZM15.4889 70.5669C15.097 70.5669 14.778 70.6991 14.5319 70.9634C14.2903 71.2277 14.1354 71.606 14.067 72.0981H16.8151V71.9409C16.806 71.5034 16.6875 71.1662 16.4596 70.9292C16.2317 70.6877 15.9082 70.5669 15.4889 70.5669ZM21.6845 76.5005V70.5532H20.5839V69.104H21.6845V68.4751C21.6845 67.6457 21.9214 67.0031 22.3954 66.5474C22.8739 66.0871 23.5416 65.8569 24.3983 65.8569C24.6718 65.8569 25.0067 65.9025 25.4032 65.9937L25.3827 67.5249C25.2186 67.4839 25.0181 67.4634 24.7811 67.4634C24.0383 67.4634 23.6669 67.812 23.6669 68.5093V69.104H25.1366V70.5532H23.6669V76.5005H21.6845ZM27.1144 72.7339C27.1144 72.0002 27.2557 71.3462 27.5382 70.772C27.8208 70.1978 28.2264 69.7534 28.755 69.439C29.2882 69.1245 29.9057 68.9673 30.6075 68.9673C31.6056 68.9673 32.4191 69.2726 33.048 69.8833C33.6814 70.494 34.0346 71.3234 34.1075 72.3716L34.1212 72.8774C34.1212 74.0122 33.8045 74.9237 33.171 75.6118C32.5376 76.2954 31.6876 76.6372 30.6212 76.6372C29.5548 76.6372 28.7026 76.2954 28.0646 75.6118C27.4311 74.9282 27.1144 73.9985 27.1144 72.8228V72.7339ZM29.09 72.8774C29.09 73.5793 29.2221 74.117 29.4864 74.4907C29.7508 74.8599 30.129 75.0444 30.6212 75.0444C31.0997 75.0444 31.4734 74.8621 31.7423 74.4976C32.0112 74.1284 32.1456 73.5405 32.1456 72.7339C32.1456 72.0457 32.0112 71.5125 31.7423 71.1343C31.4734 70.756 31.0952 70.5669 30.6075 70.5669C30.1245 70.5669 29.7508 70.756 29.4864 71.1343C29.2221 71.508 29.09 72.089 29.09 72.8774ZM40.7543 70.9565C40.4854 70.9201 40.2484 70.9019 40.0433 70.9019C39.2959 70.9019 38.806 71.1548 38.5736 71.6606V76.5005H36.598V69.104H38.4642L38.5189 69.9858C38.9154 69.3068 39.4645 68.9673 40.1664 68.9673C40.3851 68.9673 40.5902 68.9969 40.7816 69.0562L40.7543 70.9565ZM46.2389 76.6372C45.1542 76.6372 44.2701 76.3045 43.5865 75.6392C42.9075 74.9738 42.568 74.0874 42.568 72.98V72.7886C42.568 72.0457 42.7115 71.3826 42.9986 70.7993C43.2857 70.2114 43.6913 69.7603 44.2154 69.4458C44.7441 69.1268 45.3456 68.9673 46.0201 68.9673C47.0318 68.9673 47.8271 69.2863 48.4059 69.9243C48.9892 70.5623 49.2809 71.467 49.2809 72.6382V73.4448H44.5709C44.6347 73.9279 44.8261 74.3153 45.1451 74.6069C45.4687 74.8986 45.8766 75.0444 46.3688 75.0444C47.1298 75.0444 47.7245 74.7687 48.1529 74.2173L49.1236 75.3042C48.8274 75.7235 48.4264 76.0516 47.9205 76.2886C47.4146 76.521 46.8541 76.6372 46.2389 76.6372ZM46.0133 70.5669C45.6214 70.5669 45.3023 70.6991 45.0563 70.9634C44.8147 71.2277 44.6598 71.606 44.5914 72.0981H47.3395V71.9409C47.3303 71.5034 47.2119 71.1662 46.984 70.9292C46.7561 70.6877 46.4326 70.5669 46.0133 70.5669Z" fill="#3C3C3C"/>
<circle cx="159.835" cy="27.656" r="25.3347" fill="#FDD451" stroke="#FDD451" stroke-width="3"/>
<path d="M151.56 23.7076L147.438 32.9498H146.112L150.22 24.0357H144.833V22.9966H151.56V23.7076ZM160.292 25.5943C160.292 26.091 160.159 26.5331 159.895 26.9205C159.635 27.3078 159.282 27.6109 158.836 27.8297C159.355 28.053 159.765 28.3788 160.066 28.8072C160.371 29.2356 160.524 29.7209 160.524 30.2632C160.524 31.1246 160.232 31.8104 159.649 32.3209C159.07 32.8313 158.307 33.0865 157.359 33.0865C156.402 33.0865 155.634 32.8313 155.055 32.3209C154.481 31.8059 154.194 31.12 154.194 30.2632C154.194 29.7255 154.34 29.2401 154.631 28.8072C154.928 28.3742 155.336 28.0461 155.855 27.8228C155.413 27.6041 155.064 27.301 154.809 26.9136C154.554 26.5263 154.426 26.0865 154.426 25.5943C154.426 24.7558 154.695 24.0904 155.233 23.5982C155.771 23.106 156.479 22.8599 157.359 22.8599C158.234 22.8599 158.94 23.106 159.478 23.5982C160.02 24.0904 160.292 24.7558 160.292 25.5943ZM159.259 30.2359C159.259 29.6799 159.082 29.2265 158.726 28.8755C158.375 28.5246 157.915 28.3492 157.345 28.3492C156.776 28.3492 156.318 28.5224 155.971 28.8687C155.629 29.2151 155.459 29.6708 155.459 30.2359C155.459 30.801 155.625 31.2453 155.958 31.5689C156.295 31.8925 156.762 32.0543 157.359 32.0543C157.951 32.0543 158.416 31.8925 158.754 31.5689C159.091 31.2408 159.259 30.7964 159.259 30.2359ZM157.359 23.899C156.862 23.899 156.459 24.0539 156.149 24.3638C155.844 24.6692 155.691 25.0862 155.691 25.6148C155.691 26.1207 155.841 26.5308 156.142 26.8453C156.448 27.1552 156.853 27.3101 157.359 27.3101C157.865 27.3101 158.268 27.1552 158.569 26.8453C158.874 26.5308 159.027 26.1207 159.027 25.6148C159.027 25.1089 158.87 24.6965 158.555 24.3775C158.241 24.0585 157.842 23.899 157.359 23.899ZM163.534 32.2867C163.534 32.0679 163.598 31.8856 163.725 31.7398C163.858 31.594 164.054 31.5211 164.313 31.5211C164.573 31.5211 164.769 31.594 164.901 31.7398C165.038 31.8856 165.106 32.0679 165.106 32.2867C165.106 32.4963 165.038 32.6718 164.901 32.813C164.769 32.9543 164.573 33.025 164.313 33.025C164.054 33.025 163.858 32.9543 163.725 32.813C163.598 32.6718 163.534 32.4963 163.534 32.2867ZM168.909 27.9595L169.415 22.9966H174.515V24.1656H170.488L170.188 26.8795C170.675 26.5923 171.229 26.4488 171.849 26.4488C172.756 26.4488 173.476 26.7496 174.009 27.3511C174.542 27.9481 174.809 28.7571 174.809 29.7779C174.809 30.8033 174.531 31.6122 173.975 32.2047C173.423 32.7925 172.651 33.0865 171.657 33.0865C170.778 33.0865 170.06 32.8427 169.504 32.355C168.948 31.8674 168.631 31.1929 168.554 30.3316H169.75C169.828 30.9013 170.03 31.3319 170.358 31.6236C170.687 31.9107 171.12 32.0543 171.657 32.0543C172.245 32.0543 172.705 31.8537 173.038 31.4527C173.375 31.0517 173.544 30.4979 173.544 29.7916C173.544 29.1262 173.362 28.593 172.997 28.192C172.637 27.7864 172.156 27.5836 171.555 27.5836C171.003 27.5836 170.57 27.7043 170.256 27.9459L169.921 28.2193L168.909 27.9595Z" fill="#242424"/>
<path d="M147.39 71.1098H143.794L143.11 73.1606H140.93L144.635 63.2075H146.535L150.261 73.1606H148.08L147.39 71.1098ZM144.348 69.4487H146.836L145.585 65.7231L144.348 69.4487ZM152.861 73.1606V67.2133H151.76V65.7641H152.861V65.1352C152.861 64.3058 153.098 63.6632 153.572 63.2075C154.05 62.7472 154.718 62.5171 155.574 62.5171C155.848 62.5171 156.183 62.5626 156.579 62.6538L156.559 64.185C156.395 64.144 156.194 64.1235 155.957 64.1235C155.214 64.1235 154.843 64.4721 154.843 65.1694V65.7641H156.313V67.2133H154.843V73.1606H152.861ZM160.963 63.9458V65.7641H162.228V67.2133H160.963V70.9048C160.963 71.1782 161.016 71.3742 161.121 71.4926C161.225 71.6111 161.426 71.6704 161.722 71.6704C161.941 71.6704 162.135 71.6544 162.303 71.6225V73.1196C161.916 73.2381 161.517 73.2973 161.107 73.2973C159.722 73.2973 159.015 72.5978 158.988 71.1987V67.2133H157.908V65.7641H158.988V63.9458H160.963ZM167.993 73.2973C166.908 73.2973 166.024 72.9647 165.341 72.2993C164.662 71.6339 164.322 70.7475 164.322 69.6401V69.4487C164.322 68.7059 164.466 68.0428 164.753 67.4594C165.04 66.8716 165.445 66.4204 165.969 66.1059C166.498 65.7869 167.1 65.6274 167.774 65.6274C168.786 65.6274 169.581 65.9464 170.16 66.5844C170.743 67.2225 171.035 68.1271 171.035 69.2983V70.1049H166.325C166.389 70.588 166.58 70.9754 166.899 71.2671C167.223 71.5587 167.631 71.7046 168.123 71.7046C168.884 71.7046 169.479 71.4288 169.907 70.8774L170.878 71.9643C170.581 72.3836 170.18 72.7117 169.675 72.9487C169.169 73.1811 168.608 73.2973 167.993 73.2973ZM167.767 67.227C167.375 67.227 167.056 67.3592 166.81 67.6235C166.569 67.8878 166.414 68.2661 166.345 68.7583H169.093V68.601C169.084 68.1635 168.966 67.8263 168.738 67.5893C168.51 67.3478 168.187 67.227 167.767 67.227ZM177.579 67.6167C177.31 67.5802 177.073 67.562 176.868 67.562C176.121 67.562 175.631 67.8149 175.398 68.3208V73.1606H173.423V65.7641H175.289L175.344 66.646C175.74 65.9669 176.289 65.6274 176.991 65.6274C177.21 65.6274 177.415 65.657 177.606 65.7163L177.579 67.6167Z" fill="#3C3C3C"/>
<path d="M106.442 28.9419C106.686 28.6979 106.686 28.3021 106.442 28.0581L102.464 24.0806C102.22 23.8365 101.825 23.8365 101.581 24.0806C101.337 24.3247 101.337 24.7204 101.581 24.9645L105.116 28.5L101.581 32.0355C101.337 32.2796 101.337 32.6753 101.581 32.9194C101.825 33.1635 102.22 33.1635 102.464 32.9194L106.442 28.9419ZM80 29.125H106V27.875H80V29.125Z" fill="#3C3C3C"/>
</svg>
