<svg width="421" height="56" viewBox="0 0 421 56" fill="none" xmlns="http://www.w3.org/2000/svg">
<path d="M3.448 3.09261C2.752 4.90461 1.588 6.69261 0.376 7.83261C0.544 8.02461 0.796 8.49261 0.88 8.69661C1.324 8.25261 1.78 7.72461 2.2 7.13661V14.1326H3.052V5.85261C3.52 5.04861 3.952 4.19661 4.288 3.35661L3.448 3.09261ZM5.14 8.97261V7.19661H7.276V8.43261C7.276 8.61261 7.276 8.79261 7.264 8.97261H5.14ZM10.36 7.19661V8.97261H8.14C8.152 8.79261 8.152 8.61261 8.152 8.43261V7.19661H10.36ZM11.212 9.72861V6.44061H8.152V5.26461H11.608V4.44861H8.152V3.17661H7.276V4.44861H3.964V5.26461H7.276V6.44061H4.312V9.72861H7.216C7.132 10.3886 6.952 11.0246 6.568 11.5766C5.932 11.1326 5.416 10.6046 5.056 9.98061L4.312 10.2206C4.756 10.9886 5.344 11.6366 6.052 12.1646C5.488 12.6686 4.696 13.0766 3.52 13.3766C3.712 13.5566 3.964 13.9286 4.06 14.1206C5.308 13.7486 6.172 13.2446 6.772 12.6566C7.996 13.3886 9.496 13.8566 11.188 14.1086C11.308 13.8446 11.524 13.4966 11.716 13.3046C10.012 13.1006 8.5 12.6926 7.3 12.0326C7.78 11.3366 7.996 10.5566 8.092 9.72861H11.212ZM19.504 9.57261V7.58061H22.732V9.57261H19.504ZM15.7 9.57261C15.736 9.12861 15.748 8.68461 15.748 8.28861V7.58061H18.616V9.57261H15.7ZM18.616 4.82061V6.74061H15.748V4.82061H18.616ZM22.732 6.74061H19.504V4.82061H22.732V6.74061ZM23.608 3.96861H14.872V8.28861C14.872 9.95661 14.752 12.0686 13.432 13.5566C13.624 13.6646 13.984 13.9646 14.116 14.1446C15.028 13.1246 15.436 11.7566 15.616 10.4246H18.616V13.9646H19.504V10.4246H22.732V12.8606C22.732 13.0886 22.648 13.1606 22.408 13.1726C22.192 13.1726 21.376 13.1846 20.536 13.1486C20.656 13.3886 20.8 13.7726 20.836 14.0126C21.964 14.0246 22.66 14.0126 23.068 13.8686C23.452 13.7126 23.608 13.4486 23.608 12.8726V3.96861ZM31.576 6.95661V5.42061H34.24C33.676 5.96061 33.064 6.47661 32.416 6.95661H31.576ZM34.828 10.9526H29.968V9.76461H34.828V10.9526ZM29.968 12.9086V11.6606H34.828V12.9086H29.968ZM37.204 7.76061V6.95661H33.748C34.84 6.05661 35.824 5.04861 36.664 3.94461L35.908 3.53661C35.5 4.08861 35.044 4.61661 34.54 5.12061V4.62861H31.576V3.12861H30.7V4.62861H27.64V5.42061H30.7V6.95661H26.596V7.76061H31.264C29.752 8.73261 28.072 9.52461 26.332 10.1366C26.5 10.3166 26.788 10.6766 26.896 10.8686C27.628 10.5926 28.372 10.2686 29.092 9.92061V14.0726H29.968V13.6886H34.828V14.0246H35.74V9.00861H30.784C31.444 8.62461 32.092 8.20461 32.716 7.76061H37.204ZM10.39 27.7686H8.77V24.2286H10.39V27.7686ZM7.198 20.5926H8.698C8.374 22.4166 7.822 24.0966 6.982 25.2246C7.126 25.4646 7.33 25.9686 7.39 26.1726C7.618 25.8846 7.822 25.5606 8.014 25.2126V29.5326H8.77V28.5726H11.182V23.4366H8.794C9.094 22.5486 9.346 21.5766 9.538 20.5926H11.398V19.7766H7.198V20.5926ZM13.882 24.0606V20.6166H15.826V24.0606H13.882ZM18.022 24.0606H16.678V20.6166H17.794V19.7766H12.046V20.6166H13.03V24.0606H11.71V24.9126H13.018C12.982 26.5206 12.718 28.3326 11.494 29.6166C11.698 29.7246 12.022 29.9766 12.166 30.1326C13.522 28.7286 13.834 26.7366 13.87 24.9126H15.826V30.0726H16.678V24.9126H18.022V24.0606ZM26.326 21.0366V23.1486C26.326 24.0246 26.566 24.2646 27.61 24.2646H29.29C30.07 24.2646 30.322 23.9886 30.418 22.8966C30.166 22.8366 29.818 22.7046 29.626 22.5606C29.602 23.3526 29.53 23.4726 29.206 23.4726H27.706C27.274 23.4726 27.202 23.4246 27.202 23.1366V21.0366H29.662V22.2726H30.586V20.2206H25.906V19.1166H25.006V20.2206H20.422V22.3686H21.298V21.0366H23.542C23.326 22.6326 22.702 23.5206 20.242 23.9886C20.41 24.1446 20.626 24.4926 20.698 24.6966C23.446 24.1206 24.202 23.0046 24.478 21.0366H26.326ZM28.678 29.1366C28.342 29.1366 28.294 29.0886 28.294 28.7646V25.3926H25.15V25.3686V23.9286H24.262V25.3446V25.3926H20.83V26.2206H24.166C23.914 27.3366 22.99 28.5606 20.014 29.3766C20.23 29.5806 20.482 29.8926 20.614 30.1086C23.938 29.1606 24.874 27.6486 25.09 26.2206H27.37V28.7646C27.37 29.7486 27.634 30.0006 28.546 30.0006H29.794C30.622 30.0006 30.874 29.5446 30.958 27.7326C30.706 27.6606 30.31 27.5166 30.118 27.3486C30.082 28.9086 30.022 29.1366 29.698 29.1366H28.678Z" fill="#3C3C3C"/>
<path d="M85.946 5.33661H94.118V7.08861H95.03V4.49661H90.494V3.12861H89.57V4.49661H85.07V7.08861H85.946V5.33661ZM90.494 10.4366H94.046V9.60861H90.494V7.61661H93.554V6.77661H86.606V7.61661H89.582V12.6446C88.598 12.2726 87.83 11.5886 87.374 10.3286C87.494 9.82461 87.59 9.29661 87.662 8.73261L86.75 8.64861C86.486 10.7966 85.838 12.5006 84.506 13.5326C84.722 13.6646 85.094 13.9766 85.238 14.1326C86.018 13.4486 86.606 12.5606 87.026 11.4566C88.118 13.4846 89.906 13.9166 92.39 13.9166H95.174C95.21 13.6526 95.366 13.2326 95.51 13.0166C94.934 13.0286 92.87 13.0286 92.438 13.0286C91.742 13.0286 91.082 12.9926 90.494 12.8846V10.4366ZM108.254 7.25661H103.382V6.48861H107.114V5.81661H103.382V5.08461H107.75V4.38861H105.278C105.494 4.08861 105.758 3.70461 105.998 3.34461L105.05 3.09261C104.894 3.46461 104.594 4.01661 104.366 4.38861H101.498L101.582 4.35261C101.438 3.99261 101.09 3.48861 100.742 3.12861L99.974 3.39261C100.214 3.69261 100.466 4.06461 100.634 4.38861H98.174V5.08461H102.482V5.81661H98.81V6.48861H102.482V7.25661H97.658V7.96461H108.254V7.25661ZM107.606 9.18861C107.186 8.82861 106.346 8.38461 105.662 8.13261L105.182 8.66061C105.866 8.94861 106.694 9.41661 107.09 9.77661L107.606 9.18861ZM106.586 10.7486C106.262 11.1686 105.818 11.5526 105.314 11.8886C105.086 11.5166 104.882 11.0846 104.714 10.5926H108.29V9.89661H104.522C104.402 9.35661 104.318 8.76861 104.294 8.14461H103.43C103.466 8.75661 103.538 9.34461 103.658 9.89661H101.042V8.97261C101.762 8.88861 102.434 8.76861 102.986 8.63661L102.446 8.07261C101.378 8.34861 99.422 8.56461 97.79 8.66061C97.874 8.81661 97.97 9.06861 97.994 9.24861C98.69 9.21261 99.446 9.15261 100.19 9.08061V9.89661H97.646V10.5926H100.19V11.4686C99.206 11.5406 98.306 11.6006 97.598 11.6486L97.682 12.3686L100.19 12.1406V13.1726C100.19 13.3406 100.13 13.3766 99.95 13.3766C99.77 13.3886 99.146 13.3886 98.498 13.3646C98.594 13.5686 98.726 13.8686 98.774 14.0726C99.674 14.0726 100.238 14.0726 100.586 13.9526C100.922 13.8566 101.042 13.6526 101.042 13.1966V12.0686C101.75 11.9966 102.47 11.9366 103.19 11.8646V11.2286L101.042 11.3966V10.5926H103.838C104.03 11.2406 104.282 11.8166 104.582 12.3086C103.754 12.7406 102.806 13.0886 101.87 13.3286C102.014 13.4966 102.242 13.8686 102.338 14.0366C103.25 13.7486 104.174 13.3766 105.014 12.9206C105.638 13.6526 106.394 14.0726 107.246 14.0726C108.002 14.0606 108.314 13.7366 108.446 12.4646C108.218 12.4046 107.942 12.2606 107.762 12.1166C107.702 12.9686 107.606 13.2446 107.282 13.2566C106.742 13.2686 106.214 12.9806 105.746 12.4766C106.382 12.0566 106.934 11.5646 107.354 11.0126L106.586 10.7486ZM76.022 23.6766C76.73 24.1806 77.582 24.9006 78.146 25.4526C77.414 26.0166 76.598 26.5086 75.77 26.8686C75.974 27.0246 76.226 27.3126 76.334 27.5166C78.446 26.5086 80.354 24.8406 81.494 22.9446L80.714 22.6326C80.246 23.4366 79.586 24.2166 78.818 24.9006C78.53 24.6246 78.146 24.3006 77.75 23.9766C78.302 23.3526 78.962 22.5006 79.49 21.7686L79.442 21.7446H82.598V20.9286H79.706V19.1526H78.83V20.9286H75.842V21.7446H78.41C78.062 22.3326 77.582 23.0046 77.162 23.5326C76.958 23.3766 76.742 23.2206 76.55 23.0886L76.022 23.6766ZM75.962 25.6206C75.734 25.2726 74.762 23.8686 74.402 23.4246V22.5126H75.806V21.6846H74.402V19.1166H73.562V21.6846H71.81V22.5126H73.478C73.106 24.1566 72.338 26.0286 71.582 27.0366C71.738 27.2406 71.954 27.5886 72.05 27.8286C72.614 27.0486 73.154 25.7886 73.562 24.4806V30.0606H74.402V24.4806C74.786 25.1046 75.254 25.8966 75.458 26.3046L75.962 25.6206ZM81.698 24.8046C80.486 26.8806 78.182 28.5006 75.458 29.3526C75.662 29.5446 75.878 29.8446 75.998 30.0606C77.474 29.5566 78.818 28.8606 79.946 27.9846C80.726 28.6926 81.566 29.5566 81.998 30.1086L82.718 29.5566C82.238 28.9926 81.35 28.1406 80.582 27.4566C81.35 26.7846 81.998 26.0166 82.502 25.1646L81.698 24.8046ZM92.69 23.4126C93.698 24.7566 94.574 26.6166 94.85 27.8646L95.726 27.4446C95.438 26.1846 94.538 24.3726 93.47 23.0166L92.69 23.4126ZM85.73 23.4126C85.574 24.9486 85.178 26.6886 84.374 27.7326L85.178 28.2246C86.03 27.0726 86.402 25.1886 86.594 23.5806L85.73 23.4126ZM87.818 19.8606C89.258 20.3646 90.986 21.2526 91.922 21.9366L92.486 21.1566C91.538 20.5326 89.81 19.6566 88.382 19.1766L87.818 19.8606ZM87.734 22.4406V28.4286C87.734 29.5926 88.082 29.9166 89.354 29.9166H91.682C92.978 29.9166 93.266 29.2566 93.386 27.0006C93.134 26.9406 92.762 26.7726 92.558 26.5926C92.462 28.6686 92.354 29.1006 91.634 29.1006H89.426C88.766 29.1006 88.634 28.9926 88.634 28.4406V22.4406H87.734ZM104.402 21.7206H102.11V22.3326H104.402V23.1726H101.294V23.8566H108.326V23.1726H105.254V22.3326H107.762V21.7206H105.254V20.9526H108.074V20.2926H106.574C106.778 20.0166 107.006 19.6806 107.222 19.3446L106.43 19.1046C106.286 19.4406 105.998 19.9446 105.77 20.2926H103.922L103.982 20.2686C103.85 19.9446 103.526 19.4526 103.226 19.1166L102.59 19.3686C102.806 19.6566 103.046 19.9926 103.19 20.2926H101.726V20.9526H104.402V21.7206ZM106.406 24.5406C106.886 24.8646 107.438 25.3566 107.702 25.7166L108.242 25.2606C107.978 24.9246 107.414 24.4566 106.922 24.1446L106.406 24.5406ZM100.97 19.5366H98.018V20.2566H100.97V19.5366ZM101.306 21.1086H97.454V21.8406H101.306V21.1086ZM100.25 26.6526V28.6566H98.654V26.6526H100.25ZM100.994 25.9206H97.934V29.9406H98.654V29.3766H100.994V25.9206ZM97.946 25.0326H100.994V24.3126H97.946V25.0326ZM97.946 23.4366H100.994V22.7286H97.946V23.4366ZM107.174 26.8206C106.982 27.2046 106.718 27.5526 106.406 27.8886C106.298 27.5046 106.202 27.0606 106.13 26.5446H108.35V25.8606H106.046C105.998 25.3446 105.962 24.7686 105.95 24.1326H105.182C105.206 24.7446 105.242 25.3326 105.29 25.8606H103.766V24.9126C104.198 24.8286 104.618 24.7326 104.966 24.6246L104.426 24.0726C103.754 24.3126 102.506 24.5286 101.462 24.6486C101.546 24.8046 101.63 25.0566 101.666 25.2126C102.074 25.1766 102.518 25.1166 102.962 25.0566V25.8606H101.282V26.5446H102.962V27.4686C102.314 27.5526 101.726 27.6246 101.234 27.6726L101.354 28.3926L102.962 28.1526V29.2446C102.962 29.3646 102.926 29.4006 102.782 29.4126C102.65 29.4126 102.182 29.4126 101.678 29.4006C101.774 29.6046 101.894 29.8926 101.93 30.0726C102.626 30.0726 103.082 30.0726 103.37 29.9646C103.67 29.8566 103.766 29.6526 103.766 29.2566V28.0326L105.062 27.8406L105.038 27.1806C104.606 27.2406 104.186 27.3006 103.766 27.3606V26.5446H105.374C105.47 27.2766 105.614 27.9126 105.794 28.4406C105.278 28.8606 104.69 29.2086 104.102 29.4606C104.258 29.5926 104.462 29.8086 104.558 29.9406C105.074 29.7126 105.578 29.4126 106.046 29.0646C106.418 29.7846 106.898 30.1686 107.498 30.1686C108.086 30.1566 108.374 29.8206 108.506 28.7406C108.326 28.6686 108.086 28.5606 107.942 28.4046C107.882 29.1846 107.762 29.4366 107.558 29.4366C107.222 29.4366 106.91 29.1486 106.646 28.5726C107.114 28.1406 107.534 27.6486 107.834 27.1206L107.174 26.8206ZM119.858 22.8606H117.002V21.9606H119.858V22.8606ZM119.858 24.3726H117.002V23.4846H119.858V24.3726ZM119.858 25.9086H117.002V25.0086H119.858V25.9086ZM116.198 21.3006V26.5686H120.686V21.3006H118.466C118.574 21.0246 118.694 20.7006 118.802 20.3886H121.166V19.7046H115.742V20.3886H117.974C117.902 20.6886 117.806 21.0126 117.71 21.3006H116.198ZM118.85 27.1086C119.51 27.5526 120.29 28.2366 120.686 28.7166L121.334 28.2966C120.938 27.8406 120.158 27.1806 119.462 26.7606L118.85 27.1086ZM117.194 26.7726C116.738 27.3246 115.97 27.8646 115.214 28.2126C115.394 28.3326 115.682 28.6326 115.814 28.7766C116.57 28.3446 117.422 27.6726 117.938 27.0126L117.194 26.7726ZM114.29 21.1686H111.95V20.2806H114.29V21.1686ZM114.29 22.7046H111.95V21.7926H114.29V22.7046ZM115.106 19.6206H111.146V23.3646H115.106V19.6206ZM113.582 26.9046H115.61V26.2206H113.582V24.9366H115.814V24.2406H110.438V24.9366H112.814V28.1286C112.454 27.8406 112.154 27.4566 111.926 26.9646C111.974 26.5206 111.998 26.0526 112.022 25.5966H111.278C111.218 27.0606 111.014 28.6686 110.294 29.5326C110.486 29.6646 110.75 29.9406 110.858 30.1086C111.314 29.5566 111.602 28.7886 111.77 27.9246C112.85 29.5326 114.638 29.8206 117.23 29.8206H121.082C121.13 29.5806 121.274 29.2446 121.406 29.0526C120.71 29.0766 117.758 29.0766 117.23 29.0766C115.754 29.0646 114.53 28.9926 113.582 28.5846V26.9046Z" fill="#3C3C3C"/>
<circle cx="20.5" cy="47.6606" r="7.5" fill="#FDD451"/>
<circle cx="95.5" cy="47.6606" r="7.5" fill="#FDD451"/>
<circle cx="178.5" cy="47.6606" r="7.5" fill="#FDD451"/>
<circle cx="258.5" cy="47.6606" r="7.5" fill="#FDD451"/>
<circle cx="333.5" cy="47.6606" r="7.5" fill="#FDD451"/>
<circle cx="401.5" cy="47.6606" r="7.5" fill="#FDD451"/>
<line x1="21" y1="48.1606" x2="402" y2="48.1606" stroke="#FDD451" stroke-width="2"/>
<path d="M158.25 4.59261L155.97 13.1606H154.878L153.21 7.54461C153.146 7.31261 153.082 7.08061 153.018 6.84861C152.954 6.61661 152.902 6.41261 152.862 6.23661C152.822 6.05261 152.794 5.92461 152.778 5.85261C152.77 5.95661 152.726 6.18061 152.646 6.52461C152.574 6.86061 152.482 7.21261 152.37 7.58061L150.75 13.1606H149.658L147.39 4.59261H148.518L149.85 9.82461C149.946 10.1926 150.026 10.5486 150.09 10.8926C150.162 11.2366 150.218 11.5606 150.258 11.8646C150.298 11.5526 150.358 11.2126 150.438 10.8446C150.518 10.4766 150.61 10.1166 150.714 9.76461L152.226 4.59261H153.342L154.914 9.80061C155.026 10.1686 155.122 10.5366 155.202 10.9046C155.282 11.2646 155.342 11.5846 155.382 11.8646C155.422 11.5686 155.478 11.2486 155.55 10.9046C155.622 10.5526 155.706 10.1886 155.802 9.81261L157.122 4.59261H158.25ZM160.862 4.31661C161.022 4.31661 161.162 4.37261 161.282 4.48461C161.41 4.58861 161.474 4.75661 161.474 4.98861C161.474 5.21261 161.41 5.38061 161.282 5.49261C161.162 5.60461 161.022 5.66061 160.862 5.66061C160.686 5.66061 160.538 5.60461 160.418 5.49261C160.298 5.38061 160.238 5.21261 160.238 4.98861C160.238 4.75661 160.298 4.58861 160.418 4.48461C160.538 4.37261 160.686 4.31661 160.862 4.31661ZM161.378 6.72861V13.1606H160.322V6.72861H161.378ZM167.316 6.60861C167.436 6.60861 167.564 6.61661 167.7 6.63261C167.844 6.64061 167.968 6.65661 168.072 6.68061L167.94 7.65261C167.836 7.62861 167.72 7.60861 167.592 7.59261C167.472 7.57661 167.356 7.56861 167.244 7.56861C166.916 7.56861 166.608 7.66061 166.32 7.84461C166.032 8.02061 165.8 8.27261 165.624 8.60061C165.456 8.92061 165.372 9.29661 165.372 9.72861V13.1606H164.316V6.72861H165.18L165.3 7.90461H165.348C165.556 7.55261 165.824 7.24861 166.152 6.99261C166.48 6.73661 166.868 6.60861 167.316 6.60861ZM172.422 6.60861C172.974 6.60861 173.446 6.72861 173.838 6.96861C174.238 7.20861 174.542 7.54861 174.75 7.98861C174.966 8.42061 175.074 8.92861 175.074 9.51261V10.1486H170.67C170.686 10.8766 170.87 11.4326 171.222 11.8166C171.582 12.1926 172.082 12.3806 172.722 12.3806C173.13 12.3806 173.49 12.3446 173.802 12.2726C174.122 12.1926 174.45 12.0806 174.786 11.9366V12.8606C174.458 13.0046 174.134 13.1086 173.814 13.1726C173.494 13.2446 173.114 13.2806 172.674 13.2806C172.066 13.2806 171.526 13.1566 171.054 12.9086C170.59 12.6606 170.226 12.2926 169.962 11.8046C169.706 11.3086 169.578 10.7046 169.578 9.99261C169.578 9.28861 169.694 8.68461 169.926 8.18061C170.166 7.67661 170.498 7.28861 170.922 7.01661C171.354 6.74461 171.854 6.60861 172.422 6.60861ZM172.41 7.47261C171.906 7.47261 171.506 7.63661 171.21 7.96461C170.922 8.28461 170.75 8.73261 170.694 9.30861H173.97C173.962 8.76461 173.834 8.32461 173.586 7.98861C173.338 7.64461 172.946 7.47261 172.41 7.47261ZM180.576 7.54461H178.956V13.1606H177.9V7.54461H176.772V7.05261L177.9 6.69261V6.32061C177.9 5.48861 178.084 4.89261 178.452 4.53261C178.82 4.16461 179.332 3.98061 179.988 3.98061C180.244 3.98061 180.476 4.00461 180.684 4.05261C180.9 4.09261 181.084 4.14061 181.236 4.19661L180.96 5.02461C180.832 4.98461 180.684 4.94461 180.516 4.90461C180.348 4.86461 180.176 4.84461 180 4.84461C179.648 4.84461 179.384 4.96461 179.208 5.20461C179.04 5.43661 178.956 5.80461 178.956 6.30861V6.72861H180.576V7.54461ZM185.637 6.60861C185.757 6.60861 185.885 6.61661 186.021 6.63261C186.165 6.64061 186.289 6.65661 186.393 6.68061L186.261 7.65261C186.157 7.62861 186.041 7.60861 185.913 7.59261C185.793 7.57661 185.677 7.56861 185.565 7.56861C185.237 7.56861 184.929 7.66061 184.641 7.84461C184.353 8.02061 184.121 8.27261 183.945 8.60061C183.777 8.92061 183.693 9.29661 183.693 9.72861V13.1606H182.637V6.72861H183.501L183.621 7.90461H183.669C183.877 7.55261 184.145 7.24861 184.473 6.99261C184.801 6.73661 185.189 6.60861 185.637 6.60861ZM190.695 6.62061C191.479 6.62061 192.059 6.79261 192.435 7.13661C192.811 7.48061 192.999 8.02861 192.999 8.78061V13.1606H192.231L192.027 12.2486H191.979C191.699 12.6006 191.403 12.8606 191.091 13.0286C190.787 13.1966 190.363 13.2806 189.819 13.2806C189.235 13.2806 188.751 13.1286 188.367 12.8246C187.983 12.5126 187.791 12.0286 187.791 11.3726C187.791 10.7326 188.043 10.2406 188.547 9.89661C189.051 9.54461 189.827 9.35261 190.875 9.32061L191.967 9.28461V8.90061C191.967 8.36461 191.851 7.99261 191.619 7.78461C191.387 7.57661 191.059 7.47261 190.635 7.47261C190.299 7.47261 189.979 7.52461 189.675 7.62861C189.371 7.72461 189.087 7.83661 188.823 7.96461L188.499 7.17261C188.779 7.02061 189.111 6.89261 189.495 6.78861C189.879 6.67661 190.279 6.62061 190.695 6.62061ZM191.007 10.0526C190.207 10.0846 189.651 10.2126 189.339 10.4366C189.035 10.6606 188.883 10.9766 188.883 11.3846C188.883 11.7446 188.991 12.0086 189.207 12.1766C189.431 12.3446 189.715 12.4286 190.059 12.4286C190.603 12.4286 191.055 12.2806 191.415 11.9846C191.775 11.6806 191.955 11.2166 191.955 10.5926V10.0166L191.007 10.0526ZM202.942 6.60861C203.67 6.60861 204.214 6.79661 204.574 7.17261C204.934 7.54061 205.114 8.14061 205.114 8.97261V13.1606H204.07V9.02061C204.07 8.00461 203.634 7.49661 202.762 7.49661C202.138 7.49661 201.69 7.67661 201.418 8.03661C201.154 8.39661 201.022 8.92061 201.022 9.60861V13.1606H199.978V9.02061C199.978 8.00461 199.538 7.49661 198.658 7.49661C198.01 7.49661 197.562 7.69661 197.314 8.09661C197.066 8.49661 196.942 9.07261 196.942 9.82461V13.1606H195.886V6.72861H196.738L196.894 7.60461H196.954C197.154 7.26861 197.422 7.02061 197.758 6.86061C198.102 6.69261 198.466 6.60861 198.85 6.60861C199.858 6.60861 200.514 6.96861 200.818 7.68861H200.878C201.094 7.32061 201.386 7.04861 201.754 6.87261C202.13 6.69661 202.526 6.60861 202.942 6.60861ZM210.485 6.60861C211.037 6.60861 211.509 6.72861 211.901 6.96861C212.301 7.20861 212.605 7.54861 212.813 7.98861C213.029 8.42061 213.137 8.92861 213.137 9.51261V10.1486H208.733C208.749 10.8766 208.933 11.4326 209.285 11.8166C209.645 12.1926 210.145 12.3806 210.785 12.3806C211.193 12.3806 211.553 12.3446 211.865 12.2726C212.185 12.1926 212.513 12.0806 212.849 11.9366V12.8606C212.521 13.0046 212.197 13.1086 211.877 13.1726C211.557 13.2446 211.177 13.2806 210.737 13.2806C210.129 13.2806 209.589 13.1566 209.117 12.9086C208.653 12.6606 208.289 12.2926 208.025 11.8046C207.769 11.3086 207.641 10.7046 207.641 9.99261C207.641 9.28861 207.757 8.68461 207.989 8.18061C208.229 7.67661 208.561 7.28861 208.985 7.01661C209.417 6.74461 209.917 6.60861 210.485 6.60861ZM210.473 7.47261C209.969 7.47261 209.569 7.63661 209.273 7.96461C208.985 8.28461 208.813 8.73261 208.757 9.30861H212.033C212.025 8.76461 211.897 8.32461 211.649 7.98861C211.401 7.64461 211.009 7.47261 210.473 7.47261ZM165.956 29.1606L164.924 26.5086H161.528L160.508 29.1606H159.416L162.764 20.5566H163.736L167.072 29.1606H165.956ZM163.64 22.9566C163.616 22.8926 163.576 22.7766 163.52 22.6086C163.464 22.4406 163.408 22.2686 163.352 22.0926C163.304 21.9086 163.264 21.7686 163.232 21.6726C163.176 21.9206 163.112 22.1646 163.04 22.4046C162.968 22.6366 162.908 22.8206 162.86 22.9566L161.888 25.5486H164.6L163.64 22.9566ZM171.256 29.8326L172.072 29.1366C171.328 28.2606 170.248 27.1686 169.384 26.4726L168.604 27.1566C169.456 27.8526 170.488 28.8846 171.256 29.8326ZM184.492 20.5926C185.564 20.5926 186.372 20.7526 186.916 21.0726C187.468 21.3846 187.744 21.9326 187.744 22.7166C187.744 23.2206 187.604 23.6406 187.324 23.9766C187.044 24.3046 186.64 24.5166 186.112 24.6126V24.6726C186.472 24.7286 186.796 24.8326 187.084 24.9846C187.38 25.1366 187.612 25.3526 187.78 25.6326C187.948 25.9126 188.032 26.2766 188.032 26.7246C188.032 27.5006 187.764 28.1006 187.228 28.5246C186.7 28.9486 185.976 29.1606 185.056 29.1606H182.044V20.5926H184.492ZM184.708 24.2406C185.444 24.2406 185.948 24.1246 186.22 23.8926C186.492 23.6526 186.628 23.3006 186.628 22.8366C186.628 22.3646 186.46 22.0286 186.124 21.8286C185.796 21.6206 185.268 21.5166 184.54 21.5166H183.124V24.2406H184.708ZM183.124 25.1406V28.2486H184.852C185.612 28.2486 186.14 28.1006 186.436 27.8046C186.732 27.5086 186.88 27.1206 186.88 26.6406C186.88 26.1926 186.724 25.8326 186.412 25.5606C186.108 25.2806 185.56 25.1406 184.768 25.1406H183.124ZM191.684 23.2206H194.852V22.4166H193.808V19.0926H192.992V22.4166H191.684V19.3686H190.88V24.0846C190.88 25.8966 190.772 28.0446 189.944 29.5566C190.136 29.6766 190.436 29.9406 190.568 30.0846C191.3 28.8726 191.564 27.3126 191.648 25.7526H193.316V30.0606H194.132V24.9486H191.672C191.684 24.6606 191.684 24.3726 191.684 24.0846V23.2206ZM199.76 23.5566C199.496 24.8406 199.04 25.9566 198.452 26.8686C197.876 25.9206 197.456 24.8046 197.168 23.5566H199.76ZM200.18 22.7166L200.024 22.7526H196.244V20.4726H200.828V19.6566H195.404V23.0766C195.404 24.9966 195.32 27.6966 194.276 29.6286C194.48 29.7006 194.84 29.9286 195.008 30.0606C196.004 28.2126 196.22 25.5486 196.244 23.5566H196.412C196.748 25.1046 197.24 26.4846 197.936 27.6006C197.312 28.3806 196.592 28.9686 195.812 29.3526C196.004 29.5206 196.256 29.8566 196.376 30.0726C197.144 29.6406 197.852 29.0766 198.452 28.3446C199.04 29.0766 199.748 29.6646 200.588 30.0846C200.744 29.8566 201.02 29.5206 201.2 29.3526C200.324 28.9686 199.592 28.3806 198.992 27.6366C199.808 26.4126 200.42 24.8526 200.72 22.8966L200.18 22.7166Z" fill="#3C3C3C"/>
<path d="M241.442 29.1606V20.5926H242.522V28.2006H246.266V29.1606H241.442ZM254.083 25.9326C254.083 26.9966 253.811 27.8206 253.267 28.4046C252.731 28.9886 252.003 29.2806 251.083 29.2806C250.515 29.2806 250.007 29.1526 249.559 28.8966C249.119 28.6326 248.771 28.2526 248.515 27.7566C248.259 27.2526 248.131 26.6446 248.131 25.9326C248.131 24.8686 248.399 24.0486 248.935 23.4726C249.471 22.8966 250.199 22.6086 251.119 22.6086C251.703 22.6086 252.215 22.7406 252.655 23.0046C253.103 23.2606 253.451 23.6366 253.699 24.1326C253.955 24.6206 254.083 25.2206 254.083 25.9326ZM249.223 25.9326C249.223 26.6926 249.371 27.2966 249.667 27.7446C249.971 28.1846 250.451 28.4046 251.107 28.4046C251.755 28.4046 252.231 28.1846 252.535 27.7446C252.839 27.2966 252.991 26.6926 252.991 25.9326C252.991 25.1726 252.839 24.5766 252.535 24.1446C252.231 23.7126 251.751 23.4966 251.095 23.4966C250.439 23.4966 249.963 23.7126 249.667 24.1446C249.371 24.5766 249.223 25.1726 249.223 25.9326ZM260.574 25.5246C260.47 25.1966 260.378 24.8766 260.298 24.5646C260.226 24.2446 260.17 23.9966 260.13 23.8206H260.082C260.05 23.9966 259.998 24.2446 259.926 24.5646C259.854 24.8766 259.762 25.2006 259.65 25.5366L258.498 29.1486H257.298L255.534 22.7166H256.626L257.514 26.1486C257.602 26.4926 257.686 26.8406 257.766 27.1926C257.846 27.5446 257.902 27.8366 257.934 28.0686H257.982C258.014 27.9326 258.05 27.7646 258.09 27.5646C258.138 27.3646 258.19 27.1566 258.246 26.9406C258.302 26.7166 258.358 26.5166 258.414 26.3406L259.554 22.7166H260.706L261.81 26.3406C261.898 26.6126 261.982 26.9086 262.062 27.2286C262.15 27.5486 262.21 27.8246 262.242 28.0566H262.29C262.314 27.8566 262.366 27.5806 262.446 27.2286C262.534 26.8766 262.626 26.5166 262.722 26.1486L263.622 22.7166H264.702L262.914 29.1486H261.678L260.574 25.5246ZM266.216 26.4126V25.4766H269.12V26.4126H266.216ZM274.487 23.5446H272.867V29.1606H271.811V23.5446H270.683V23.0526L271.811 22.6926V22.3206C271.811 21.4886 271.995 20.8926 272.363 20.5326C272.731 20.1646 273.243 19.9806 273.899 19.9806C274.155 19.9806 274.387 20.0046 274.595 20.0526C274.811 20.0926 274.995 20.1406 275.147 20.1966L274.871 21.0246C274.743 20.9846 274.595 20.9446 274.427 20.9046C274.259 20.8646 274.087 20.8446 273.911 20.8446C273.559 20.8446 273.295 20.9646 273.119 21.2046C272.951 21.4366 272.867 21.8046 272.867 22.3086V22.7286H274.487V23.5446ZM276.191 20.3166C276.351 20.3166 276.491 20.3726 276.611 20.4846C276.739 20.5886 276.803 20.7566 276.803 20.9886C276.803 21.2126 276.739 21.3806 276.611 21.4926C276.491 21.6046 276.351 21.6606 276.191 21.6606C276.015 21.6606 275.867 21.6046 275.747 21.4926C275.627 21.3806 275.567 21.2126 275.567 20.9886C275.567 20.7566 275.627 20.5886 275.747 20.4846C275.867 20.3726 276.015 20.3166 276.191 20.3166ZM276.707 22.7286V29.1606H275.651V22.7286H276.707Z" fill="#3C3C3C"/>
<path d="M328.829 29.1606H327.749V25.1646H323.357V29.1606H322.277V20.5926H323.357V24.2166H327.749V20.5926H328.829V29.1606ZM332.467 20.3166C332.627 20.3166 332.767 20.3726 332.887 20.4846C333.015 20.5886 333.079 20.7566 333.079 20.9886C333.079 21.2126 333.015 21.3806 332.887 21.4926C332.767 21.6046 332.627 21.6606 332.467 21.6606C332.291 21.6606 332.143 21.6046 332.023 21.4926C331.903 21.3806 331.843 21.2126 331.843 20.9886C331.843 20.7566 331.903 20.5886 332.023 20.4846C332.143 20.3726 332.291 20.3166 332.467 20.3166ZM332.983 22.7286V29.1606H331.927V22.7286H332.983ZM335.381 26.4126V25.4766H338.285V26.4126H335.381ZM343.652 23.5446H342.032V29.1606H340.976V23.5446H339.848V23.0526L340.976 22.6926V22.3206C340.976 21.4886 341.16 20.8926 341.528 20.5326C341.896 20.1646 342.408 19.9806 343.064 19.9806C343.32 19.9806 343.552 20.0046 343.76 20.0526C343.976 20.0926 344.16 20.1406 344.312 20.1966L344.036 21.0246C343.908 20.9846 343.76 20.9446 343.592 20.9046C343.424 20.8646 343.252 20.8446 343.076 20.8446C342.724 20.8446 342.46 20.9646 342.284 21.2046C342.116 21.4366 342.032 21.8046 342.032 22.3086V22.7286H343.652V23.5446ZM345.356 20.3166C345.516 20.3166 345.656 20.3726 345.776 20.4846C345.904 20.5886 345.968 20.7566 345.968 20.9886C345.968 21.2126 345.904 21.3806 345.776 21.4926C345.656 21.6046 345.516 21.6606 345.356 21.6606C345.18 21.6606 345.032 21.6046 344.912 21.4926C344.792 21.3806 344.732 21.2126 344.732 20.9886C344.732 20.7566 344.792 20.5886 344.912 20.4846C345.032 20.3726 345.18 20.3166 345.356 20.3166ZM345.872 22.7286V29.1606H344.816V22.7286H345.872Z" fill="#3C3C3C"/>
<path d="M389.167 13.1606H388.087V4.59261H392.875V5.54061H389.167V8.57661H392.647V9.52461H389.167V13.1606ZM395.605 4.31661C395.765 4.31661 395.905 4.37261 396.025 4.48461C396.153 4.58861 396.217 4.75661 396.217 4.98861C396.217 5.21261 396.153 5.38061 396.025 5.49261C395.905 5.60461 395.765 5.66061 395.605 5.66061C395.429 5.66061 395.281 5.60461 395.161 5.49261C395.041 5.38061 394.981 5.21261 394.981 4.98861C394.981 4.75661 395.041 4.58861 395.161 4.48461C395.281 4.37261 395.429 4.31661 395.605 4.31661ZM396.121 6.72861V13.1606H395.065V6.72861H396.121ZM402.155 6.60861C402.923 6.60861 403.503 6.79661 403.895 7.17261C404.287 7.54061 404.483 8.14061 404.483 8.97261V13.1606H403.439V9.04461C403.439 8.01261 402.959 7.49661 401.999 7.49661C401.287 7.49661 400.795 7.69661 400.523 8.09661C400.251 8.49661 400.115 9.07261 400.115 9.82461V13.1606H399.059V6.72861H399.911L400.067 7.60461H400.127C400.335 7.26861 400.623 7.02061 400.991 6.86061C401.359 6.69261 401.747 6.60861 402.155 6.60861ZM409.813 6.62061C410.597 6.62061 411.177 6.79261 411.553 7.13661C411.929 7.48061 412.117 8.02861 412.117 8.78061V13.1606H411.349L411.145 12.2486H411.097C410.817 12.6006 410.521 12.8606 410.209 13.0286C409.905 13.1966 409.481 13.2806 408.937 13.2806C408.353 13.2806 407.869 13.1286 407.485 12.8246C407.101 12.5126 406.909 12.0286 406.909 11.3726C406.909 10.7326 407.161 10.2406 407.665 9.89661C408.169 9.54461 408.945 9.35261 409.993 9.32061L411.085 9.28461V8.90061C411.085 8.36461 410.969 7.99261 410.737 7.78461C410.505 7.57661 410.177 7.47261 409.753 7.47261C409.417 7.47261 409.097 7.52461 408.793 7.62861C408.489 7.72461 408.205 7.83661 407.941 7.96461L407.617 7.17261C407.897 7.02061 408.229 6.89261 408.613 6.78861C408.997 6.67661 409.397 6.62061 409.813 6.62061ZM410.125 10.0526C409.325 10.0846 408.769 10.2126 408.457 10.4366C408.153 10.6606 408.001 10.9766 408.001 11.3846C408.001 11.7446 408.109 12.0086 408.325 12.1766C408.549 12.3446 408.833 12.4286 409.177 12.4286C409.721 12.4286 410.173 12.2806 410.533 11.9846C410.893 11.6806 411.073 11.2166 411.073 10.5926V10.0166L410.125 10.0526ZM416.06 13.1606H415.004V4.04061H416.06V13.1606ZM385.272 26.5086C385.344 26.1486 385.416 25.7646 385.488 25.3926H387.276V25.6086H388.08V22.7406H386.232C387.3 22.0206 388.224 21.0606 388.752 19.8726L388.2 19.5846L388.044 19.6206H384.792V20.3526H387.576C387.276 20.8086 386.88 21.2406 386.436 21.6126C386.076 21.2766 385.488 20.8446 384.996 20.5446L384.48 21.0486C384.936 21.3246 385.488 21.7326 385.824 22.0806C385.104 22.5726 384.276 22.9686 383.484 23.2086C383.64 23.3646 383.856 23.6646 383.964 23.8686C384.372 23.7246 384.78 23.5566 385.176 23.3526V23.4606H387.276V24.6966H384.864C384.72 25.5726 384.48 26.6886 384.288 27.4086L385.032 27.5406L385.116 27.2046H387.24C387.108 28.4886 386.988 29.0406 386.796 29.2206C386.7 29.3166 386.568 29.3286 386.352 29.3286C386.112 29.3286 385.464 29.3166 384.804 29.2566C384.948 29.4606 385.056 29.7846 385.068 30.0126C385.728 30.0486 386.352 30.0486 386.664 30.0366C387.036 30.0126 387.252 29.9526 387.456 29.7486C387.768 29.4366 387.924 28.6926 388.08 26.8686C388.104 26.7606 388.116 26.5086 388.116 26.5086H385.272ZM392.352 26.7966C392.064 27.3486 391.656 27.8046 391.164 28.1766C390.636 27.7926 390.216 27.3246 389.952 26.7966H392.352ZM392.904 26.1126L392.76 26.1486H388.788V26.7966H389.712L389.22 26.9406C389.52 27.5886 389.952 28.1406 390.492 28.6086C389.784 28.9926 388.968 29.2566 388.104 29.4246C388.248 29.5926 388.428 29.8926 388.5 30.0846C389.46 29.8686 390.36 29.5446 391.128 29.0766C391.872 29.5446 392.76 29.8806 393.78 30.0726C393.9 29.8566 394.116 29.5086 394.308 29.3406C393.372 29.2086 392.532 28.9446 391.824 28.5846C392.508 28.0086 393.06 27.2646 393.396 26.3166L392.904 26.1126ZM393.612 20.4006C393.216 20.8086 392.556 21.3846 392.004 21.7686C391.692 21.5526 391.404 21.3126 391.128 21.0486C391.668 20.6766 392.34 20.1606 392.856 19.6686L392.196 19.2006C391.812 19.6086 391.2 20.1726 390.684 20.5686C390.3 20.1246 389.988 19.6446 389.748 19.1166L389.04 19.3446C389.664 20.7246 390.672 21.8646 391.932 22.6926H389.232V23.6166C389.232 24.2046 389.064 24.8526 388.116 25.3686C388.272 25.4766 388.572 25.7646 388.692 25.9206C389.748 25.3086 389.988 24.4206 389.988 23.6406V23.4126H391.62V24.4926C391.62 25.0566 391.68 25.2486 391.824 25.3926C391.992 25.5246 392.256 25.5726 392.484 25.5726H393.072C393.24 25.5726 393.48 25.5486 393.6 25.5126C393.756 25.4526 393.888 25.3686 393.96 25.2366C394.032 25.1046 394.068 24.7446 394.092 24.4446C393.876 24.3846 393.588 24.2406 393.444 24.1086C393.432 24.4086 393.42 24.6366 393.396 24.7326C393.36 24.8166 393.3 24.8766 393.252 24.9006C393.204 24.9246 393.096 24.9246 392.988 24.9246H392.64C392.544 24.9246 392.484 24.9126 392.436 24.8766C392.388 24.8406 392.376 24.7206 392.376 24.5646V22.9566C392.916 23.2686 393.48 23.5086 394.092 23.7006C394.224 23.4846 394.452 23.1726 394.644 22.9926C393.912 22.8006 393.228 22.5126 392.604 22.1526C393.144 21.8046 393.78 21.3126 394.272 20.8566L393.612 20.4006ZM406.176 24.8646C405.6 25.4046 404.676 26.0766 403.908 26.5686C403.476 25.9446 403.152 25.2366 402.9 24.4686H407.196V23.6886H402.42V22.6086H406.332V21.8766H402.42V20.8926H406.788V20.1126H402.42V19.1166H401.532V20.1126H397.236V20.8926H401.532V21.8766H397.776V22.6086H401.532V23.6886H396.792V24.4686H400.944C399.768 25.4646 397.956 26.3526 396.396 26.7966C396.576 26.9886 396.828 27.3006 396.972 27.5286C397.74 27.2766 398.58 26.9046 399.384 26.4726V28.8606C398.76 29.0166 398.184 29.1486 397.704 29.2566L397.992 30.0726C399.42 29.7126 401.46 29.2086 403.344 28.7046L403.248 27.9126C402.252 28.1646 401.232 28.4166 400.284 28.6446V25.9326C400.956 25.5006 401.568 25.0206 402.06 24.5286C402.9 27.2406 404.436 29.1726 406.992 30.0366C407.112 29.7966 407.364 29.4246 407.568 29.2566C406.224 28.8486 405.144 28.1286 404.34 27.1446C405.144 26.6766 406.128 26.0286 406.884 25.4166L406.176 24.8646ZM417.432 26.7966V27.6006H412.464V26.7966H417.432ZM412.464 29.0646V28.2366H417.432V29.0646H412.464ZM411.6 30.0726H412.464V29.7006H417.432V30.0486H418.332V26.1606H411.6V30.0726ZM416.616 24.9366C416.856 24.5766 417.156 24.0366 417.432 23.5206L416.676 23.2806C416.52 23.6886 416.22 24.3246 415.992 24.7206L416.616 24.9366ZM412.38 23.5326C412.68 23.9766 412.956 24.5526 413.052 24.9366L413.736 24.6846C413.628 24.3006 413.328 23.7486 413.016 23.3286L412.38 23.5326ZM411.66 23.1966H414.492V24.9846H411.66V23.1966ZM418.188 24.9846H415.224V23.1966H418.188V24.9846ZM410.892 25.5966H419.004V22.5726H410.892V25.5966ZM413.004 21.2886C413.736 20.8086 414.384 20.3166 414.84 19.8366C415.356 20.3406 416.04 20.8326 416.784 21.2886H413.004ZM414.384 19.1166C413.388 20.2686 411.372 21.4926 409.344 22.1886C409.512 22.3566 409.716 22.6806 409.824 22.8846C410.868 22.4886 411.924 21.9606 412.836 21.3966V21.9366H417V21.4206C417.96 21.9846 419.016 22.4766 419.952 22.8006C420.084 22.5726 420.288 22.2606 420.48 22.0566C418.632 21.5166 416.556 20.4246 415.212 19.1166H414.384Z" fill="#3C3C3C"/>
</svg>
